PathFileType	4	(X/Y/Z)	C:/Users/opensim2020/Desktop/walking_exp_matlab/subject03_walking11_straight_01.trc																																																																																																																																								
DataRate	CameraRate	NumFrames	NumMarkers	Units	OrigDataRate	OrigDataStartFrame	OrigNumFrames																																																																																																																																				
100	100	4	46	mm	100	917	454																																																																																																																																				
Frame#	Time	LFHD			RFHD			LBHD			RBHD			C7			T10			CLAV			STRN			RBAK			LSHO			LUPA			LELB			LFRM			LWRA			LWRB			LFIN			RSHO			RUPA			RELB			RFRM			RWRA			RWRB			RFIN			LASI			RASI			LPSI			RPSI			LTHI			LKNE			LTIB			LANK			LHEE			LTOE			RTHI			RKNE			RTIB			RANK			RHEE			RTOE			*39			*40			*41			*42			*43			*44			*45		
		X1	Y1	Z1	X2	Y2	Z2	X3	Y3	Z3	X4	Y4	Z4	X5	Y5	Z5	X6	Y6	Z6	X7	Y7	Z7	X8	Y8	Z8	X9	Y9	Z9	X10	Y10	Z10	X11	Y11	Z11	X12	Y12	Z12	X13	Y13	Z13	X14	Y14	Z14	X15	Y15	Z15	X16	Y16	Z16	X17	Y17	Z17	X18	Y18	Z18	X19	Y19	Z19	X20	Y20	Z20	X21	Y21	Z21	X22	Y22	Z22	X23	Y23	Z23	X24	Y24	Z24	X25	Y25	Z25	X26	Y26	Z26	X27	Y27	Z27	X28	Y28	Z28	X29	Y29	Z29	X30	Y30	Z30	X31	Y31	Z31	X32	Y32	Z32	X33	Y33	Z33	X34	Y34	Z34	X35	Y35	Z35	X36	Y36	Z36	X37	Y37	Z37	X38	Y38	Z38	X39	Y39	Z39	X40	Y40	Z40	X41	Y41	Z41	X42	Y42	Z42	X43	Y43	Z43	X44	Y44	Z44	X45	Y45	Z45	X46	Y46	Z46
																																																																																																																																											
284	2.83	333.38129	1613.15479	1365.54224	325.12347	1620.01563	1498.15649	203.64661	1575.37158	1363.20593	200.26846	1581.53503	1494.38684	166.49928	1417.31897	1415.87646	123.61755	1104.31995	1412.3656	286.59879	1338.22803	1425.5957	324.71442	1172.19604	1419.51099	100.69399	1242.40564	1504.86682	256.94437	1378.45435	1268.67627	284.36496	1190.67664	1189.78003	322.57938	1074.82971	1175.84448	393.99902	967.55261	1185.77405	453.33267	868.82953	1226.30859	438.26364	863.11401	1173.0896	488.04483	797.50714	1189.22595	226.50336	1362.24634	1581.77747	210.68718	1140.62622	1653.69482	222.62509	1028.04773	1667.11523	239.03807	891.83356	1667.71118	269.47855	797.00299	1630.99597	238.0997	791.7973	1674.95618	261.17432	720.56104	1664.10156	291.19135	936.72699	1301.09863	284.60538	939.41217	1539.12036	128.28349	961.60272	1348.46021	124.20663	965.09668	1496.88892	212.25085	636.51685	1271.37781	192.25015	460.34296	1312.51355	115.80775	278.29953	1310.31384	62.12657	74.77026	1352.74194	16.84042	42.21316	1387.14026	210.83241	34.60457	1374.28894	287.86575	647.81616	1595.58533	366.06259	484.41876	1563.56958	361.41495	296.849	1573.2074	388.43387	79.82503	1537.23767	353.97461	42.15345	1481.19885	530.88751	57.41603	1529.52002	250.27788	1678.53418	1413.13245	NaN	NaN	NaN	NaN	NaN	NaN	NaN	NaN	NaN	NaN	NaN	NaN	NaN	NaN	NaN	NaN	NaN	NaN
285	2.84	340.63651	1612.44507	1366.81396	332.15793	1618.93286	1499.39551	210.82806	1574.66443	1364.27686	207.29276	1580.49316	1495.43445	173.54384	1416.53625	1416.72852	130.29251	1103.57629	1413.05786	293.63223	1337.27563	1426.32056	331.56302	1171.23743	1420.03625	107.88488	1241.52271	1505.5614	263.90253	1377.65918	1269.38867	291.53918	1189.92529	1190.53394	329.85175	1074.03796	1176.75037	402.22067	967.55951	1187.0885	462.36667	869.55011	1228.04443	447.33868	863.44519	1174.93359	497.74329	798.38733	1191.33826	233.56184	1361.25903	1582.5675	217.14122	1139.58801	1654.15906	228.53981	1026.87085	1667.3324	244.23578	890.63251	1667.81995	274.22635	795.61804	1631.00085	242.71773	790.53387	1674.88318	265.65549	719.35956	1664.29553	297.64719	935.79913	1301.43066	291.7789	938.41956	1539.56311	134.87704	960.68488	1349.29419	131.18082	964.13812	1497.66772	217.27982	635.98206	1271.69006	195.91032	459.8512	1312.67212	117.82613	278.47021	1310.3844	62.35682	75.58772	1352.82446	16.77551	43.57669	1387.20679	210.88383	34.573	1374.24573	293.36618	646.47028	1595.89392	371.8522	483.06409	1563.19617	372.7706	296.19931	1573.28882	406.78922	79.85244	1537.60229	373.39587	41.91824	1481.82959	550.50977	59.80313	1529.20911	257.3317	1677.68457	1414.26758	NaN	NaN	NaN	NaN	NaN	NaN	NaN	NaN	NaN	NaN	NaN	NaN	NaN	NaN	NaN	NaN	NaN	NaN
286	2.85	347.76056	1611.62085	1368.08569	339.24338	1617.89233	1500.71765	218.04697	1573.92163	1365.37231	214.40884	1579.54333	1496.54504	180.67218	1415.6925	1417.62683	137.18317	1102.74915	1413.77087	300.69754	1336.38806	1427.04944	338.4913	1170.2782	1420.57544	115.08324	1240.57654	1506.30029	270.86908	1376.84668	1270.12976	298.57101	1189.15796	1191.35278	337.3374	1073.40479	1177.74097	410.29706	967.45313	1188.4939	471.13757	870.11096	1229.87439	456.10361	863.56189	1176.74426	507.11496	799.1192	1193.4906	240.72119	1360.1875	1583.35486	223.828	1138.52002	1654.65173	234.71173	1025.71069	1667.59583	249.57805	889.34155	1667.88757	279.0827	794.26514	1631.0188	247.48935	789.27551	1674.84082	270.14209	718.13593	1664.26941	304.20779	934.93866	1301.83765	298.92514	937.41974	1540.01062	141.63715	959.67792	1350.09644	138.19638	963.23785	1498.4928	222.37532	635.51349	1272.19836	199.50688	459.4469	1312.89026	119.83189	278.79199	1310.51782	62.80102	76.23914	1352.73657	16.91395	44.63208	1387.03687	210.7641	34.52548	1374.55554	299.11975	645.24567	1596.19446	377.58456	481.73294	1563.02991	383.58923	295.61176	1573.53284	424.02704	80.16867	1538.11597	391.55688	41.79208	1482.22217	568.80499	62.61936	1528.60437	264.62973	1676.96118	1415.88708	NaN	NaN	NaN	NaN	NaN	NaN	NaN	NaN	NaN	NaN	NaN	NaN	NaN	NaN	NaN	NaN	NaN	NaN
287	2.86	355.12674	1610.96692	1369.43689	346.40802	1616.90527	1502.02161	225.32027	1573.22852	1366.49792	221.55345	1578.5509	1497.73865	187.80617	1414.96667	1418.58057	144.04204	1101.9917	1414.59241	307.83234	1335.52966	1427.77466	345.43423	1169.37195	1421.10303	122.44955	1239.71082	1507.14832	277.90125	1376.08545	1270.91931	305.58136	1188.36731	1192.31226	344.62485	1072.66309	1178.80603	418.07776	967.16718	1189.8916	479.56635	870.41571	1231.68213	464.52682	863.52936	1178.68201	516.0235	799.57965	1195.58032	248.02451	1359.20398	1584.18872	230.82977	1137.52783	1655.22375	241.32484	1024.61707	1667.96082	255.13872	888.15173	1668.01465	284.07449	792.93036	1631.01294	252.31042	788.06433	1674.91675	274.81622	716.8797	1664.20422	310.93619	934.13788	1302.26221	306.26715	936.46765	1540.5813	148.44295	959.00519	1351.16321	145.38817	962.34863	1499.46484	227.53236	635.216	1272.52991	203.18732	459.14569	1312.99988	121.85551	279.23236	1310.62231	63.04869	77.18061	1352.69373	17.05966	45.97658	1387.09485	210.79593	34.48253	1374.58789	305.20859	644.1994	1596.3075	383.28027	480.40552	1562.97034	393.44254	295.08041	1573.59241	439.85306	80.54888	1538.41724	408.25043	41.74203	1482.68604	585.45905	65.55362	1527.85852	271.81635	1675.9895	1417.05054	NaN	NaN	NaN	NaN	NaN	NaN	NaN	NaN	NaN	NaN	NaN	NaN	NaN	NaN	NaN	NaN	NaN	NaN
